<svg width="173" height="103" viewBox="0 0 173 103" fill="none" xmlns="http://www.w3.org/2000/svg">
<g filter="url(#filter0_d_600_22)">
<path d="M22 16H26.56L34.8 23.76V29.8L27.04 22.48V39H22V16ZM49.56 16H45.04L36.76 23.76V29.8L44.52 22.48V39H49.56V16ZM57.5469 16H70.3469V20.72H62.5869V25.24H70.3469V29.8H62.5869V34.48H70.1869V39H57.5469V16ZM72.3069 34.48V39H85.1069V34.48H72.3069ZM85.1069 20.72V16H72.1469V20.72H85.1069ZM78.6269 29.8V25.24H72.1469V29.8H78.6269ZM89.5203 18.76V36.28L94.2003 39H102.32V34.48H94.7203V20.72H102.48V16H94.2003L89.5203 18.76ZM117.24 23.44H112.04V20.72H104.28V16H112.56L117.24 18.76V23.44ZM117.24 25.24V36.28L112.56 39H104.44V34.48H112.04V29.8H104.28V25.24H117.24ZM123.622 18.76V39H128.662V29.8H136.422V25.24H128.662V20.52H136.422V16H128.182L123.622 18.76ZM151.182 18.76V39H146.142V29.8H138.222V25.24H146.142V20.52H138.222V16H146.462L151.182 18.76ZM20.8 58.76V67.2L25.36 69.92H33.6V65.24H25.68V60.72H33.6V56H25.36L20.8 58.76ZM48.36 68V76.28L43.64 79H35.56V74.48H43.32V69.92H35.4V65.24H43.64L48.36 68ZM25.84 71.72H20.8V76.28L25.48 79H33.6V74.48H25.84V71.72ZM48.36 63.44H43.32V60.72H35.4V56H43.64L48.36 58.76V63.44ZM55.1641 56H60.2041V65.24H67.9641V69.8H60.2041V79H55.1641V56ZM82.7241 56H77.6841V65.24H69.9241V69.8H77.6841V79H82.7241V56ZM89.9109 58.76L94.5909 56H102.871V60.52H94.9509V74.32H102.711V79H94.5909L89.9109 76.28V58.76ZM117.471 58.76L112.951 56H104.671V60.52H112.431V74.32H104.671V79H112.951L117.471 76.28V58.76ZM124.656 56H137.616V60.52H129.856V65.24H137.616V69.92H129.856V79H124.656V56ZM152.376 67.2V58.76L147.696 56H139.416V60.52H147.176V65.24H139.416V69.92H147.696L152.376 67.2Z" fill="#003366"/>
</g>
<defs>
<filter id="filter0_d_600_22" x="0.799805" y="0" width="171.576" height="103" filterUnits="userSpaceOnUse" color-interpolation-filters="sRGB">
<feFlood flood-opacity="0" result="BackgroundImageFix"/>
<feColorMatrix in="SourceAlpha" type="matrix" values="0 0 0 0 0 0 0 0 0 0 0 0 0 0 0 0 0 0 127 0" result="hardAlpha"/>
<feOffset dy="4"/>
<feGaussianBlur stdDeviation="10"/>
<feComposite in2="hardAlpha" operator="out"/>
<feColorMatrix type="matrix" values="0 0 0 0 0 0 0 0 0 0 0 0 0 0 0 0 0 0 0.25 0"/>
<feBlend mode="normal" in2="BackgroundImageFix" result="effect1_dropShadow_600_22"/>
<feBlend mode="normal" in="SourceGraphic" in2="effect1_dropShadow_600_22" result="shape"/>
</filter>
</defs>
</svg>
